<svg width="16.000000" height="16.000000" viewBox="0 0 16 16" fill="none" xmlns="http://www.w3.org/2000/svg" xmlns:xlink="http://www.w3.org/1999/xlink">
	<desc>
			Created with Pixso.
	</desc>
	<defs/>
	<path d="M0.666016 8C0.666016 3.94922 3.94922 0.666016 8 0.666016C12.0488 0.666016 15.332 3.94922 15.332 8C15.332 12.0488 12.0488 15.332 8 15.332C3.94922 15.332 0.666016 12.0488 0.666016 8ZM8 2C4.68555 2 2 4.68555 2 8C2 11.3125 4.68555 14 8 14C11.3125 14 14 11.3125 14 8C14 4.68555 11.3125 2 8 2ZM8 3.66602C8.36719 3.66602 8.66602 3.96484 8.66602 4.33203L8.66602 7.72266L10.4707 9.52734C10.7305 9.78906 10.7305 10.2109 10.4707 10.4707C10.2109 10.7305 9.78906 10.7305 9.52734 10.4707L7.52734 8.4707C7.40234 8.3457 7.33203 8.17578 7.33203 8L7.33203 4.33203C7.33203 3.96484 7.63086 3.66602 8 3.66602Z" fill="#787A80" fill-opacity="1.000000" fill-rule="evenodd"/>
</svg>
